<svg version="1.0" xmlns="http://www.w3.org/2000/svg" width="1440" height="1440" viewBox="0 0 1080 1080"><path d="M895.8 328c-10.1 2.5-50.9 23-67.3 33.8-29.3 19.2-43.5 33.9-43.5 45v3.9l-12.7 6c-23.8 11.4-100.8 47.5-105.1 49.4-2.4 1.1-5.5 1.9-6.8 1.9-2.9 0-6 1.4-8.9 4-2.2 2-36 18-38 18-.7 0-5.4-4.5-10.5-10-10.6-11.6-15-14.3-23-14.3-4.8 0-6.6.6-13.4 4.6-10.1 5.9-19.5 8.2-30.9 7.4-10.4-.7-13.7-1.7-22.2-6.9-6.2-3.8-7.7-4.3-13-4.3-3.8 0-7.5.7-10 1.9-2.6 1.3-17.8 15.8-44.8 43-55.1 55.5-59.2 60.7-59.2 74.8v7.7l-16 7.4c-8.8 4.1-29.6 13.9-46.3 21.7-27.8 13-30.5 14-32.1 12.6-4.2-3.8-9.3-5-21.6-4.9-13.3 0-28.5 2.9-44.4 8.4-12.7 4.4-38.9 17.7-52.9 26.8l-12.3 8.1h-37.7c-32.6 0-38.1.2-40 1.6-2.5 1.7-3 6.5-.9 8.2.9.8 46.2 1.2 155.3 1.5 169.1.4 158 0 183.5 6.6 14.2 3.6 22.8 7 38.9 15.3 17.8 9.1 40 16.3 58.3 18.9 4.5.6 15.4 1.2 24.2 1.2 26.5 0 46.2-5.4 80.5-21.8 20.5-9.9 31.9-13.7 52.5-17.7 10.9-2.1 13-2.2 165.8-2.7 136.1-.5 154.9-.8 155.7-2.1 1.6-2.6 1.1-5.8-1.2-7.4-2-1.4-17.8-1.6-148.8-1.6H700.4l-1.2-3.4c-.7-1.9-2.8-5.5-4.8-8-4.1-5.5-13.8-10.4-40.4-20.9-9.1-3.6-27.1-10.6-40-15.7s-31.9-12.5-42.3-16.6c-20.4-8.1-27.8-9.7-37.9-8.4-7.6 1-2.7-.8-46.3 16.5-19.8 7.9-47 18.7-60.5 24-13.5 5.4-27.6 11.3-31.3 13.3-7.2 3.7-12.6 9.4-14.9 15.8l-1.2 3.4h-95.8l5.2-6.2c5.6-6.7 8.4-11.5 9.5-16.7.6-3 1.5-3.7 8.9-7.1 12.9-6 56.7-26.6 72.7-34.1l14.5-6.9 4.8 1.6c6.1 2.1 17.5 1.5 26.7-1.5 11.4-3.6 16.7-8.6 17.6-16.2l.5-4.4 13.7-6.3c13.6-6.2 16.1-7 16.1-5.3 0 4 5.2 32.6 6.1 33.7 1.5 1.9 6.3 1.8 8-.2 1.1-1.3.9-4.3-.9-17.7-4.1-29.5-7.3-48.2-8.8-50.5-1-1.5-2.4-2.2-4.7-2.2-2.8 0-5.9 2.4-22.4 17.3l-19.1 17.4-5.5-.5c-6.8-.5-9.7.9-9.7 4.8 0 4.1 2.4 6 7.4 6 5.3 0 9.2 3.5 8.2 7.3-1 4-13.7 8.7-23.8 8.7-4.6 0-6.2-.5-8.7-2.6-5.4-4.5-4.3-9.5 4.7-22.4 5.1-7.4 85.1-88.3 89.6-90.7s9.1-1.9 14.4 1.6c9.2 5.9 15.3 7.4 29.7 7.5 15 .1 23.1-1.8 32.5-7.8 5.8-3.7 10-4.4 14.4-2.5 2.3 1.1 30.1 30 54.5 56.7 5.6 6.1 11.2 11.7 12.3 12.3 3 1.6 6.7.3 7.4-2.7.4-1.4.1-16-.7-32.5-1.1-27.4-1.1-30.1.4-31.6 1.3-1.3 1.9-1.4 3.1-.4 2.4 2 3.3 6 7.6 34.1 2.3 14.6 5.7 35.2 7.6 45.8s3.4 20.5 3.4 21.8c0 3.2-5.1 8.4-8.2 8.4-3.4 0-5.2-1.4-33.8-27-31.5-28.2-32.1-28.7-35.8-27.4-1.8.6-3.1 2.1-3.8 4.4-1.4 4.2-9.4 59-9.4 64 0 2 .5 4.1 1.2 4.8 1.6 1.6 6.3 1.5 7.6-.1.6-.6 2.4-11.1 4.2-23.2 3.8-26.7 5-33.5 6.1-33.5.5 0 11.5 9.6 24.5 21.2 12.9 11.7 25.4 22.5 27.6 24 13.4 8.9 30.7-.1 30.8-16 0-2.4-2-15-4.4-28s-5.6-31.4-7.1-40.7c-3.9-25.2-5.2-32.8-5.9-34.5s.8-2.6 27.4-15.1c9.1-4.2 30-14.1 46.5-21.9 44.8-21.2 41.1-19.7 44.8-17.5 9.6 5.7 40.7 1.4 72.3-10 24.8-9 54.8-23.7 61.7-30.3 7.9-7.5 8.3-18 1.3-32.7-8.4-17.6-20.1-25.6-32.8-22.5M647.4 500.7c1.2 23.5 1.3 26.3.6 26.3-1.1 0-25-25.6-25-26.7 0-1 20.4-11.1 22.7-11.2.7-.1 1.3 3.7 1.7 11.6M471 553.3c0 3.2-.3 3.5-8 7-4.4 1.9-8 3.3-7.9 2.9.1-.9 14.2-13.1 15.2-13.1.4-.1.7 1.4.7 3.2m63 111.3V716h-2.9c-4.4 0-17.7-1.9-25.3-3.5-12.9-2.9-23.5-6.8-41.8-15.5-10.2-4.9-23-10.4-28.5-12.3-9.4-3.3-29.2-7.8-39.7-9.2-2.7-.3-4.8-1-4.8-1.5 0-2.1 6.6-8.3 11.3-10.7 2.8-1.4 10-4.4 16.1-6.8s30-11.8 53.1-21c45.5-18.2 60.4-23.7 61.7-22.9.4.3.8 23.7.8 52m16.5-51.5c2.2.6 18 6.6 35 13.4 17.1 6.7 45.2 17.8 62.5 24.6 28.8 11.4 31.9 12.8 36.2 17 2.7 2.5 4.8 5 4.8 5.6s-3.9 1.6-8.7 2.3c-22.2 3-38.7 8.3-65.4 21.1-26.8 12.8-42.3 17.5-61.1 18.6l-8.8.6v-52.2c0-28.6.3-52.1.8-52.1.4 0 2.5.5 4.7 1.1"/><path d="M530.3 357.5c-16.7 3.6-30.4 17.3-35.9 36-2.4 8.1-2.4 23 0 30.9 8.4 28.1 33.1 43.3 57.8 35.6 31.6-9.7 44.9-52.9 25.3-82.4-6.7-10.1-17.2-17.5-28.7-20.1-7.9-1.8-10.3-1.8-18.5 0m23.2 13c9.9 4.8 18.7 16.4 21.5 28.4.8 3.3 1.1 8.7.7 13.7-.9 15.2-10 29.4-22.5 35.2-7.7 3.6-19.1 3.7-26.9.3-5.9-2.6-14.9-11.4-18.2-17.9-6.7-13.1-6.7-29.3.1-42.6 2.4-4.7 9.9-12.9 14.3-15.6 8.6-5.3 21.7-6 31-1.5M122.8 712.1c-2.3 1.3-2.3 6.2-.1 8 1.3 1.2 25.6 1.5 145.7 1.9l144.1.6 11.4 2.7c16.4 3.8 25.7 7.1 42.1 14.8 22.1 10.3 35.9 14.3 59 17 19 2.2 42.9-.3 63.6-6.6 4.6-1.4 16.7-6.4 26.9-11 20.2-9.3 30.2-12.5 47.4-15.5 11-1.9 16.3-2 150.5-2 124.3 0 139.4-.2 141.4-1.6 2.9-2 3-6.9.2-8.4-1.4-.7-45.4-1-144.7-.7-141.1.3-142.9.3-153.8 2.4-15.3 3-26 6.6-40.1 13.4-41.7 20.1-70.9 24.6-107.3 16.8-13-2.8-24-6.8-41.1-14.9-21.1-10-35.5-14.1-59-17-11.6-1.4-283.8-1.3-286.2.1"/></svg>